{"accessors" : [{"bufferView" : 0, "byteOffset" : 0, "componentType" : 5123, "count" : 18852, "type" : "SCALAR", "max" : [18851], "min" : [0]}, {"bufferView" : 1, "byteOffset" : 0, "componentType" : 5126, "count" : 18852, "type" : "VEC3", "max" : [-11.03950023651123, 42.806800842285156, 16.332202911376953], "min" : [-29.164100646972656, 0.6681990027427673, -11.344696998596191], "name" : "POSITION"}, {"bufferView" : 1, "byteOffset" : 12, "componentType" : 5126, "count" : 18852, "type" : "VEC3", "max" : [1.0000044107437134, 0.9998352527618408, 1.0000040531158447], "min" : [-0.9998089671134949, -0.9999961256980896, -1.0000040531158447], "name" : "NORMAL"}, {"bufferView" : 1, "byteOffset" : 24, "componentType" : 5126, "count" : 18852, "type" : "VEC2", "max" : [0.9964740872383118, -0.008812454529106617], "min" : [0.00045092482469044626, -0.9976645112037659], "name" : "TEXCOORD_0"}, {"bufferView" : 0, "byteOffset" : 37704, "componentType" : 5123, "count" : 528, "type" : "SCALAR", "max" : [527], "min" : [0]}, {"bufferView" : 2, "byteOffset" : 0, "componentType" : 5126, "count" : 528, "type" : "VEC3", "max" : [-24.624500274658203, 39.14550018310547, 5.468505859375], "min" : [-29.585599899291992, 35.89830017089844, 1.3850059509277344], "name" : "POSITION"}, {"bufferView" : 2, "byteOffset" : 12, "componentType" : 5126, "count" : 528, "type" : "VEC3", "max" : [0.0677790567278862, 0.9830917119979858, 0.9988805651664734], "min" : [-0.9974644780158997, -0.5537496209144592, -0.9988803267478943], "name" : "NORMAL"}, {"bufferView" : 2, "byteOffset" : 24, "componentType" : 5126, "count" : 528, "type" : "VEC2", "max" : [0.9083701372146606, -0.06669234484434128], "min" : [0.5085965394973755, -0.9492433667182922], "name" : "TEXCOORD_0"}], "asset" : {"generator" : "Aspose.3D 21.5.2", "version" : "2.0"}, "buffers" : [{"uri" : "data:application/octet-stream;base64,", "byteLength" : 658932}], "bufferViews" : [{"buffer" : 0, "byteOffset" : 0, "byteLength" : 38760, "target" : 34963}, {"buffer" : 0, "byteOffset" : 38764, "byteLength" : 603264, "byteStride" : 32, "target" : 34962}, {"buffer" : 0, "byteOffset" : 642032, "byteLength" : 16896, "byteStride" : 32, "target" : 34962}], "materials" : [{"pbrMetallicRoughness" : {"baseColorFactor" : [0.800000011920929, 0.800000011920929, 0.800000011920929, 1], "metallicFactor" : 0, "roughnessFactor" : 0}, "emissiveFactor" : [0, 0, 0], "alphaMode" : "OPAQUE", "doubleSided" : false}, {"pbrMetallicRoughness" : {"baseColorFactor" : [0, 0, 0, 1], "metallicFactor" : 0, "roughnessFactor" : 0}, "emissiveFactor" : [0, 0, 0], "alphaMode" : "OPAQUE", "doubleSided" : false}], "meshes" : [{"primitives" : [{"attributes" : {"POSITION" : 1, "NORMAL" : 2, "TEXCOORD_0" : 3}, "indices" : 0, "material" : 0, "mode" : 4}, {"attributes" : {"POSITION" : 5, "NORMAL" : 6, "TEXCOORD_0" : 7}, "indices" : 4, "material" : 1, "mode" : 4}]}], "nodes" : [{"matrix" : [100, 0, 0, 0, 0, 99.99999999999866, 1.6292067073209108E-05, 0, 0, -1.6292067073209108E-05, 99.99999999999866, 0, 0, 0, 0, 1], "mesh" : 0, "name" : "Caixa001"}], "scene" : 0, "scenes" : [{"nodes" : [0]}]}