{
  "accessors": [
    {
      "bufferView": 2,
      "componentType": 5126,
      "count": 17921,
      "max": [
        24.186344146728516,
        9.664493560791016,
        24.228717803955078
      ],
      "min": [
        -23.456043243408203,
        -0.05259332060813904,
        -25.164730072021484
      ],
      "type": "VEC3"
    },
    {
      "bufferView": 2,
      "byteOffset": 215052,
      "componentType": 5126,
      "count": 17921,
      "max": [
        0.9928438067436218,
        1.0,
        1.0
      ],
      "min": [
        -0.998805046081543,
        -0.9822922348976135,
        -1.0
      ],
      "type": "VEC3"
    },
    {
      "bufferView": 3,
      "componentType": 5126,
      "count": 17921,
      "max": [
        1.0,
        0.9993482232093811,
        0.996279239654541,
        1.0
      ],
      "min": [
        -0.9997457265853882,
        -0.9971189498901367,
        -0.9999464154243469,
        -1.0
      ],
      "type": "VEC4"
    },
    {
      "bufferView": 1,
      "componentType": 5126,
      "count": 17921,
      "max": [
        0.9921774864196777,
        0.9888505935668945
      ],
      "min": [
        0.01920899748802185,
        0.01906225085258484
      ],
      "type": "VEC2"
    },
    {
      "bufferView": 0,
      "componentType": 5125,
      "count": 17961,
      "type": "SCALAR"
    }
  ],
  "asset": {
    "extras": {
      "author": "yinjo (https://sketchfab.com/yinjo)",
      "license": "CC-BY-4.0 (http://creativecommons.org/licenses/by/4.0/)",
      "source": "https://sketchfab.com/3d-models/arctic-landscape-low-poly-c9b3e44347224d79ac7c8cbec623b12d",
      "title": "Arctic Landscape Low-poly"
    },
    "generator": "Sketchfab-10.72.0",
    "version": "2.0"
  },
  "bufferViews": [
    {
      "buffer": 0,
      "byteLength": 71844,
      "name": "floatBufferViews",
      "target": 34963
    },
    {
      "buffer": 0,
      "byteLength": 143368,
      "byteOffset": 71844,
      "byteStride": 8,
      "name": "floatBufferViews",
      "target": 34962
    },
    {
      "buffer": 0,
      "byteLength": 430104,
      "byteOffset": 215212,
      "byteStride": 12,
      "name": "floatBufferViews",
      "target": 34962
    },
    {
      "buffer": 0,
      "byteLength": 286736,
      "byteOffset": 645316,
      "byteStride": 16,
      "name": "floatBufferViews",
      "target": 34962
    }
  ],
  "buffers": [
    {
      "byteLength": 932052,
      "uri": "scene.bin"
    }
  ],
  "images": [
    {
      "uri": "textures/lambert6_baseColor.png"
    },
    {
      "uri": "textures/lambert6_metallicRoughness.png"
    },
    {
      "uri": "textures/lambert6_normal.png"
    }
  ],
  "materials": [
    {
      "doubleSided": true,
      "name": "lambert6",
      "normalTexture": {
        "index": 2,
        "scale": 0.05586871749109156
      },
      "pbrMetallicRoughness": {
        "baseColorTexture": {
          "index": 0
        },
        "metallicFactor": 0.0,
        "metallicRoughnessTexture": {
          "index": 1
        }
      }
    }
  ],
  "meshes": [
    {
      "name": "antarctica_Mesh_lambert6_0",
      "primitives": [
        {
          "attributes": {
            "NORMAL": 1,
            "POSITION": 0,
            "TANGENT": 2,
            "TEXCOORD_0": 3
          },
          "indices": 4,
          "material": 0,
          "mode": 4
        }
      ]
    }
  ],
  "nodes": [
    {
      "children": [
        1
      ],
      "matrix": [
        1.0,
        0.0,
        0.0,
        0.0,
        0.0,
        2.220446049250313e-16,
        -1.0,
        0.0,
        0.0,
        1.0,
        2.220446049250313e-16,
        0.0,
        0.0,
        0.0,
        0.0,
        1.0
      ],
      "name": "Sketchfab_model"
    },
    {
      "children": [
        2
      ],
      "matrix": [
        1.0,
        0.0,
        0.0,
        0.0,
        0.0,
        0.0,
        1.0,
        0.0,
        0.0,
        -1.0,
        0.0,
        0.0,
        0.0,
        0.0,
        0.0,
        1.0
      ],
      "name": "6dc205d7fc9746c79135af22ae85df83.fbx"
    },
    {
      "children": [
        3
      ],
      "name": "RootNode"
    },
    {
      "children": [
        4
      ],
      "name": "antarctica_Mesh"
    },
    {
      "mesh": 0,
      "name": "antarctica_Mesh_lambert6_0"
    }
  ],
  "samplers": [
    {
      "magFilter": 9729,
      "minFilter": 9987,
      "wrapS": 10497,
      "wrapT": 10497
    }
  ],
  "scene": 0,
  "scenes": [
    {
      "name": "Sketchfab_Scene",
      "nodes": [
        0
      ]
    }
  ],
  "textures": [
    {
      "sampler": 0,
      "source": 0
    },
    {
      "sampler": 0,
      "source": 1
    },
    {
      "sampler": 0,
      "source": 2
    }
  ]
}
